<svg id="Layer_1" data-name="Layer 1" xmlns="http://www.w3.org/2000/svg" viewBox="0 0 228.65 30.2"><defs><style>.cls-1,.cls-3{fill:#00518a;}.cls-2{fill:#fff;}.cls-3{font-size:25.94px;font-family:FranklinGothic-Medium, Franklin Gothic Medium;font-weight:500;}.cls-4{letter-spacing:-0.04em;}.cls-5{letter-spacing:0em;}.cls-6{letter-spacing:0.01em;}</style></defs><title>WebPartmentsLogo</title><rect class="cls-1" x="20.12" width="8.68" height="30.2"/><rect class="cls-2" x="21.58" y="2.92" width="1.66" height="1.66"/><rect class="cls-2" x="25.3" y="2.92" width="1.66" height="1.66"/><rect class="cls-2" x="21.58" y="7.26" width="1.66" height="1.66"/><rect class="cls-2" x="25.3" y="7.26" width="1.66" height="1.66"/><rect class="cls-2" x="21.58" y="11.59" width="1.66" height="1.66"/><rect class="cls-2" x="25.3" y="11.59" width="1.66" height="1.66"/><rect class="cls-2" x="21.58" y="15.92" width="1.66" height="1.66"/><rect class="cls-2" x="25.3" y="15.92" width="1.66" height="1.66"/><rect class="cls-2" x="21.58" y="20.25" width="1.66" height="1.66"/><rect class="cls-2" x="25.3" y="20.25" width="1.66" height="1.66"/><rect class="cls-1" x="-1.46" width="8.68" height="30.2"/><rect class="cls-1" x="9.33" y="16.85" width="8.68" height="13.35"/><rect class="cls-2" y="2.92" width="1.66" height="1.66"/><rect class="cls-2" x="3.72" y="2.92" width="1.66" height="1.66"/><rect class="cls-2" y="7.26" width="1.66" height="1.66"/><rect class="cls-2" x="3.72" y="7.26" width="1.66" height="1.66"/><rect class="cls-2" x="10.97" y="18.92" width="1.66" height="1.66"/><rect class="cls-2" x="14.69" y="18.92" width="1.66" height="1.66"/><rect class="cls-2" x="10.97" y="23.25" width="1.66" height="1.66"/><rect class="cls-2" x="14.69" y="23.25" width="1.66" height="1.66"/><rect class="cls-2" y="11.59" width="1.66" height="1.66"/><rect class="cls-2" x="3.72" y="11.59" width="1.66" height="1.66"/><rect class="cls-2" y="15.92" width="1.66" height="1.66"/><rect class="cls-2" x="3.72" y="15.92" width="1.66" height="1.66"/><rect class="cls-2" y="20.25" width="1.66" height="1.66"/><rect class="cls-2" x="3.72" y="20.25" width="1.66" height="1.66"/><text class="cls-3" transform="translate(36.8 26.07)">WEB<tspan class="cls-4" x="52.59" y="0">P</tspan><tspan class="cls-5" x="66.99" y="0">ARTMEN</tspan><tspan class="cls-6" x="163.39" y="0">T</tspan><tspan x="176.13" y="0">S</tspan></text></svg>